<svg width="400" height="157" viewBox="0 0 400 157" fill="none" xmlns="http://www.w3.org/2000/svg">
<path d="M92.6455 41.904H69.6055L56.0375 84.016L40.1655 41.904H16.7415L45.0295 110C45.0295 114.736 43.4935 117.552 40.5495 118.32C39.0135 118.832 36.5815 119.472 33.1255 119.472H31.7175C29.6695 119.472 27.7495 119.344 25.8295 119.216V136.752C28.5175 136.88 31.4615 137.008 34.5335 137.008C41.1895 137.008 46.5655 136.112 51.1735 134.192C62.0535 129.072 65.6375 117.936 68.4535 110C69.8615 106.16 75.8775 88.88 81.6375 73.008C84.9655 63.664 88.6775 53.296 92.6455 41.904Z" fill="#8CB9D5"/>
<path d="M157.411 50.224C154.467 43.952 147.043 40.752 134.883 40.752C131.427 40.752 125.539 41.392 119.779 43.312V10.416L98.7865 14.128V108.08C108.899 110 118.115 110.896 126.691 110.896C139.107 110.896 147.811 108.464 152.931 103.728C155.363 101.296 156.899 99.12 157.411 97.456C159.075 94.768 159.843 87.856 159.843 76.848V70.064C159.843 59.568 159.075 52.912 157.411 50.224ZM138.723 66.224V83.632C138.723 85.296 138.595 86.576 138.211 87.728C137.187 91.696 133.603 93.616 127.587 93.616H125.923L119.779 93.232V61.36C122.979 59.44 126.307 58.544 129.635 58.544H131.043H132.835C136.803 59.44 138.723 62 138.723 66.224ZM186.978 16.944C185.058 15.024 181.602 14.768 178.658 14.768C175.714 14.768 172.385 15.024 169.954 16.944C167.906 18.864 167.65 22.448 167.65 24.624C167.65 27.056 167.906 30.256 169.954 32.176C172.385 34.096 176.098 34.352 178.658 34.352C181.09 34.352 185.058 34.096 186.978 32.176C189.41 30.256 189.666 27.184 189.666 24.624C189.666 22.192 189.41 18.864 186.978 16.944ZM168.034 41.904H189.154V110H168.034V41.904ZM258.854 108.336V41.52H241.447C241.319 42.032 241.191 42.544 241.063 42.928C240.679 43.824 240.551 44.848 240.551 45.872C233.767 42.16 223.655 38.96 212.263 42.032C204.455 44.464 201.51 50.352 200.103 53.552C198.183 57.776 197.543 63.28 197.543 74.16V80.944C197.543 91.568 198.439 98.224 200.103 100.656C203.047 106.928 210.471 110.128 222.631 110.128C227.111 110.128 230.951 109.616 233.639 108.976C235.175 108.592 236.583 108.208 237.863 107.696V110C237.863 114.48 236.327 117.168 233.383 118.32C231.719 118.96 229.287 119.344 225.831 119.344H224.167C217.127 119.344 209.575 118.704 201.255 117.04L201.127 117.168V134.064C201.127 134.32 204.711 134.96 211.878 136.112C216.231 136.624 221.351 136.88 227.111 136.88C242.215 136.88 251.943 131.76 256.423 121.52C257.575 118.576 258.343 115.504 258.727 112.432V110C258.727 109.488 258.727 108.976 258.854 108.336ZM237.863 61.488V89.52C234.407 91.568 230.951 92.592 227.751 92.592H226.471L224.807 92.336C220.711 91.568 218.663 89.008 218.663 84.656V68.4C218.663 66.992 218.919 65.712 219.303 64.432C220.455 60.336 224.039 58.672 229.799 59.44C230.439 59.568 231.207 59.696 232.103 59.824C233.511 60.208 235.431 60.592 237.863 61.488Z" fill="#316DB2"/>
<path d="M315.022 94.896C314.382 94.896 307.726 94.512 304.014 92.848C299.406 91.44 299.406 87.984 299.406 83.504V59.312V78.768V59.312H313.23L315.406 41.776H299.406V21.168L278.414 24.752V41.776H268.174V59.312H278.414V72.368C278.414 79.024 278.542 85.936 278.542 86.32C278.542 111.536 295.054 110.256 310.03 110.256H315.022V94.896ZM378.815 51.888C375.615 45.232 367.295 41.904 353.854 41.904H332.735L330.815 59.312H350.527C354.239 59.312 356.927 59.824 358.463 60.976C359.871 61.744 360.511 64.432 360.511 69.168V71.472H350.655C341.055 71.472 335.039 72.24 332.607 73.904C326.847 76.592 323.903 81.968 323.903 90.288V90.8C323.903 95.536 325.183 99.76 327.615 103.472C331.327 108.336 336.319 110.768 342.591 110.768H344.383C350.911 110.768 357.055 108.976 363.199 105.776C363.327 106.8 363.455 107.824 363.839 108.72C363.967 109.104 364.095 109.616 364.223 110H381.631V68.016C381.631 61.232 380.735 55.856 378.815 51.888ZM360.511 85.424V93.104C356.799 94.768 353.471 95.92 350.783 95.92C346.943 95.92 345.023 94 345.023 90.288C345.023 88.496 345.407 87.344 346.047 86.704C346.943 85.808 349.375 85.424 353.471 85.424H360.511Z" fill="#294F7F"/>
</svg>
